<svg width="78" height="17" viewBox="0 0 78 17" fill="none" xmlns="http://www.w3.org/2000/svg">
<path d="M0.407837 7.99206V5.67934L7.84025 2.21106V4.95302L3.82682 6.76976L7.84025 8.58663V11.4603L0.407837 7.99206Z" fill="white"/>
<path d="M77.6207 5.67934V7.99206L70.1883 11.4601V8.71851L74.2017 6.90178L70.1883 5.08477V2.21106L77.6207 5.67934Z" fill="white"/>
<path d="M17.7988 16.0021C14.8253 16.0021 13.1742 15.2753 13.1742 13.9537C13.1742 13.2269 13.7689 12.6655 14.7601 12.4671C14.083 12.0873 13.67 11.4927 13.67 10.8486C13.67 9.9896 14.2481 9.34561 15.322 8.9658C14.9287 8.71069 14.606 8.36057 14.3837 7.94779C14.1614 7.535 14.0468 7.07286 14.0504 6.60405C14.0436 6.1832 14.1358 5.76665 14.3194 5.38791C14.5031 5.00918 14.773 4.67884 15.1076 4.42349C15.8178 3.84531 16.7428 3.5481 17.8658 3.5481C19.0552 3.5481 20.0625 3.895 20.7733 4.55551C21.2358 3.96081 21.9293 3.68025 22.9369 3.68025V5.79473C22.4846 5.77955 22.0327 5.83525 21.5976 5.9598C21.6484 6.17092 21.676 6.38695 21.6801 6.60405C21.6887 7.02749 21.5974 7.44699 21.4137 7.82861C21.2301 8.21023 20.9591 8.54326 20.6229 8.80074C19.9127 9.37865 19.0042 9.65975 17.8646 9.65975C17.4647 9.6567 17.0661 9.61241 16.6753 9.52759C16.2788 9.64336 16.064 9.7919 16.064 10.0065C16.064 10.3203 16.2623 10.4196 16.7413 10.4196H19.995C21.8943 10.4196 22.9685 11.2949 22.9685 12.7984C22.9685 14.7964 21.0196 16.0021 17.7988 16.0021ZM17.8319 14.2018C19.5992 14.2018 20.4415 13.9211 20.4415 13.3428C20.4415 13.0289 20.1607 12.8472 19.6983 12.8472H17.2534C16.1469 12.8472 15.6844 13.0289 15.6844 13.4912C15.6847 13.9707 16.3784 14.2018 17.8319 14.2018ZM17.8814 5.36563C17.1052 5.36563 16.6591 5.81152 16.6591 6.60445C16.6591 7.38073 17.1382 7.85992 17.8814 7.85992C18.6247 7.85992 19.0872 7.39738 19.0872 6.60445C19.0872 5.81152 18.6577 5.3651 17.8814 5.3651V5.36563Z" fill="#73F9BC"/>
<path d="M24.7017 11.2124C23.9088 10.4031 23.5123 9.32962 23.5123 7.9753C23.5123 6.68705 23.9253 5.63007 24.7346 4.80357C25.5438 3.96121 26.5848 3.5481 27.856 3.5481C29.0288 3.5481 29.9866 3.91139 30.6973 4.65463C31.4242 5.39787 31.7874 6.37265 31.7874 7.61094C31.7874 8.00741 31.7543 8.37083 31.7378 8.65166H26.2383C26.42 9.72503 26.9981 10.2375 28.1708 10.2375C28.9269 10.2086 29.6427 9.88904 30.1691 9.34548L31.6228 10.9641C30.7473 11.9553 29.5744 12.401 27.9066 12.401C26.5687 12.4016 25.4947 12.0054 24.7017 11.2124ZM26.2876 6.96787H29.0788C29.0628 6.04292 28.6003 5.56333 27.8074 5.56333C27.0144 5.56333 26.4858 6.04292 26.2876 6.96787Z" fill="#73F9BC"/>
<path d="M34.0502 11.2124C33.2573 10.4031 32.8608 9.32962 32.8608 7.9753C32.8608 6.68705 33.2736 5.63007 34.083 4.80357C34.8923 3.96121 35.9332 3.5481 37.2045 3.5481C38.3773 3.5481 39.3351 3.91139 40.0459 4.65463C40.7727 5.39787 41.136 6.37265 41.136 7.61094C41.136 8.00741 41.103 8.37083 41.0864 8.65166H35.5863C35.768 9.72503 36.346 10.2375 37.5188 10.2375C38.2749 10.2086 38.9908 9.88906 39.5172 9.34548L40.9709 10.9641C40.0954 11.9553 38.9225 12.401 37.2547 12.401C35.9167 12.4016 34.843 12.0054 34.0502 11.2124ZM35.6361 6.96787H38.4275C38.411 6.04279 37.9484 5.56373 37.1556 5.56373C36.3628 5.56373 35.8341 6.04292 35.6358 6.96787H35.6361Z" fill="#73F9BC"/>
<path d="M48.0395 7.06693L51.3593 12.2035H48.0555L46.0409 8.90032L45.4299 9.54418V12.2035H42.6547V0.146484H45.4299V6.40642L47.9074 3.74706H51.2436L48.0395 7.06693Z" fill="#73F9BC"/>
<path d="M52.2672 12.2035V0.146484H55.0425V12.2035H52.2672Z" fill="#73F9BC"/>
<path d="M57.7009 11.2124C56.908 10.4031 56.5115 9.32962 56.5115 7.9753C56.5115 6.68705 56.9245 5.63007 57.7338 4.80357C58.5432 3.96121 59.584 3.5481 60.8553 3.5481C62.0281 3.5481 62.9859 3.91139 63.6967 4.65463C64.4235 5.39787 64.7867 6.37265 64.7867 7.61094C64.7867 8.00741 64.7538 8.37083 64.7373 8.65166H59.2368C59.4185 9.72503 59.9966 10.2375 61.1693 10.2375C61.9255 10.2085 62.6413 9.88901 63.1678 9.34548L64.6215 10.9641C63.7461 11.9553 62.5731 12.401 60.9053 12.401C59.5672 12.4016 58.4939 12.0054 57.7009 11.2124ZM59.2868 6.96787H62.078C62.0615 6.04279 61.5991 5.56373 60.8063 5.56373C60.0135 5.56373 59.485 6.04292 59.2868 6.96787Z" fill="#73F9BC"/>
</svg>
