<svg width="80" height="39" viewBox="0 0 80 39" fill="none" xmlns="http://www.w3.org/2000/svg">
<path d="M59.2567 20.8438C59.1207 22.5749 58.751 24.2796 58.1576 25.9114C56.9373 29.2744 54.8037 32.2306 51.9964 34.4483C48.5871 37.1616 44.3567 38.6355 39.9994 38.628C37.4627 38.6281 34.9508 38.1285 32.6072 37.1578C30.2636 36.1871 28.1341 34.7642 26.3404 32.9705C24.5467 31.1768 23.1239 29.0474 22.1532 26.7038C21.1825 24.3601 20.6829 21.8483 20.683 19.3116C20.6838 14.1893 22.7194 9.27705 26.3418 5.65547C29.9643 2.03389 34.8771 -0.000426345 39.9994 1.80027e-05C42.7187 -0.00369978 45.408 0.56845 47.8904 1.6788C50.3727 2.78915 52.5918 4.41255 54.4016 6.44217L50.6606 9.62619C49.3117 8.13883 47.666 6.95062 45.8297 6.13816C43.9935 5.32571 42.0074 4.90703 39.9994 4.90912C36.18 4.9104 32.5175 6.42818 29.8168 9.12885C27.1162 11.8295 25.5984 15.4921 25.5971 19.3114C25.5976 23.131 27.1151 26.794 29.816 29.4948C32.5168 32.1956 36.1798 33.7132 39.9994 33.7137C43.4984 33.7202 46.8788 32.4455 49.5024 30.1303C50.8565 28.9433 51.9751 27.512 52.7999 25.9112H42.8632L43.8491 20.8436L59.2567 20.8438Z" fill="#73F9BC"/>
<path d="M41.9216 13.2385C41.9205 14.4639 41.4329 15.6387 40.5659 16.5047C39.699 17.3707 38.5237 17.8571 37.2983 17.8569C36.0737 17.8561 34.8995 17.3692 34.0335 16.5033C33.1676 15.6373 32.6807 14.4631 32.6799 13.2385C32.6797 12.0131 33.1661 10.8378 34.0321 9.97087C34.8981 9.10395 36.0729 8.61634 37.2983 8.61523C38.5244 8.61535 39.7003 9.10246 40.5673 9.96947C41.4343 10.8365 41.9215 12.0124 41.9216 13.2385Z" fill="white"/>
<path d="M18.7751 19.3126C18.7728 15.8308 19.628 12.402 21.2652 9.32917C22.9024 6.2563 25.2711 3.6339 28.1621 1.6936C18.775 4.37637 9.38765 10.2493 0 19.3126C9.38709 28.3788 18.7744 34.252 28.1621 36.9319C25.271 34.9915 22.9023 32.3691 21.2652 29.2961C19.628 26.2232 18.7728 22.7944 18.7751 19.3126Z" fill="white"/>
<path d="M51.8381 1.6936C54.7292 3.63386 57.098 6.25623 58.7353 9.32909C60.3725 12.4019 61.2279 15.8307 61.2257 19.3126C61.2279 22.7944 60.3726 26.2233 58.7353 29.2962C57.098 32.3691 54.7292 34.9916 51.8381 36.9319C61.2253 34.2486 70.6126 28.3755 80 19.3126C70.6129 10.2467 61.2256 4.37371 51.8381 1.6936Z" fill="white"/>
</svg>
